<?xml version="1.0" encoding="UTF-8"?>
<svg version="1.1" xmlns="http://www.w3.org/2000/svg" width="512" height="512">
<path d="M0 0 C1.55783229 -0.00417695 3.11566153 -0.00965644 4.67348516 -0.01631981 C8.93809109 -0.03074522 13.20250329 -0.02653885 17.46711969 -0.019153 C22.07247375 -0.01441658 26.67778618 -0.02693519 31.28312683 -0.03717041 C40.29803543 -0.05435292 49.31287432 -0.05519976 58.32779504 -0.04995751 C65.65399636 -0.04591449 72.98017708 -0.04736092 80.30637741 -0.05270576 C81.87098349 -0.0538284 81.87098349 -0.0538284 83.46719777 -0.05497371 C85.58621285 -0.05650519 87.70522792 -0.05804354 89.82424299 -0.05958868 C109.68757881 -0.07331108 129.55087521 -0.06787726 149.41421013 -0.05640347 C167.58958726 -0.04646558 185.76486268 -0.05942183 203.94022413 -0.08333766 C222.60496827 -0.10771243 241.26966501 -0.11734088 259.93442476 -0.11068493 C270.41249639 -0.10718985 280.89048974 -0.10944417 291.36854935 -0.12693596 C300.28559685 -0.1416374 309.2025109 -0.14232005 318.11955573 -0.12486505 C322.66931776 -0.11633678 327.21884117 -0.11425011 331.76859093 -0.1295166 C335.93343996 -0.14331877 340.0978449 -0.13865852 344.26266794 -0.11927737 C345.76924166 -0.11550335 347.27585057 -0.11847958 348.78239305 -0.12888902 C362.79895578 -0.2188502 362.79895578 -0.2188502 368.6524353 4.38768005 C373.26545962 9.3648905 373.80041799 13.24707807 373.78944969 19.80914593 C373.79210152 20.57504397 373.79475335 21.34094201 373.79748553 22.13004908 C373.8051948 24.71745906 373.80573832 27.30482172 373.80633545 29.89224243 C373.81034899 31.75766556 373.81478703 33.62308781 373.81961501 35.488509 C373.83159829 40.63119835 373.83723301 45.77387831 373.84179616 50.91657889 C373.84774555 56.4566145 373.859357 61.99663885 373.87008667 67.53666687 C373.89462503 80.9237763 373.90923948 94.31088946 373.92214674 107.69801447 C373.92585748 111.47754334 373.9298308 115.25707185 373.9338994 119.03660035 C373.95913359 142.49478769 373.9812081 165.952976 373.99362755 189.41117382 C373.9965489 194.84645783 373.99951642 200.2817418 374.00253296 205.71702576 C374.00290387 206.39229477 374.00327478 207.06756377 374.00365693 207.76329548 C374.0158133 229.65868714 374.04675884 251.55399843 374.08845448 273.44935235 C374.13244995 296.5945857 374.15816095 319.73977337 374.16354811 342.88505441 C374.16696527 355.50335242 374.17875645 368.12152363 374.21165085 380.73978233 C374.23961425 391.48426931 374.25066694 402.2286035 374.23945539 412.97312405 C374.23425938 418.45665463 374.23721695 423.93986505 374.26192093 429.42334938 C374.28434592 434.44279274 374.283726 439.46168473 374.26471706 444.48113731 C374.26190758 446.29747082 374.26756796 448.11384119 374.28252999 449.93011525 C374.41299964 466.79884742 374.41299964 466.79884742 370.23713219 471.98040015 C364.32399926 477.23151992 358.49293288 477.96963975 350.80685425 477.86869812 C349.8444676 477.87211582 348.88208095 477.87553352 347.89053106 477.87905478 C344.68130084 477.88561805 341.47291598 477.8636828 338.26376343 477.84178162 C335.95719421 477.84065281 333.65062356 477.84128765 331.34405518 477.84355164 C325.09253586 477.84469839 318.84132408 477.8211949 312.58987617 477.79325581 C306.05292448 477.76823595 299.51596558 477.76589968 292.97897339 477.76115417 C282.01037267 477.75080403 271.04187956 477.72515992 260.07333374 477.68943787 C248.77841757 477.65269127 237.48353203 477.62439251 226.18856812 477.60740662 C225.49171294 477.60635572 224.79485776 477.60530483 224.07688576 477.60422209 C220.58077835 477.59900173 217.08467073 477.59394695 213.58856297 477.58897448 C184.60977927 477.54754426 155.63110999 477.47682526 126.6524353 477.38768005 C126.67861938 478.27028503 126.70480347 479.15289001 126.73178101 480.0622406 C126.81723805 483.35179586 126.87979275 486.64016427 126.92709351 489.93040466 C126.95216678 491.35149296 126.98623529 492.77245319 127.02963257 494.19309998 C127.09061388 496.24135467 127.11871292 498.28789889 127.14071655 500.3368988 C127.16690063 501.56755066 127.19308472 502.79820251 127.22006226 504.06614685 C126.49775739 508.29279531 124.93027723 509.724936 121.6524353 512.38768005 C118.51329154 513.59604856 115.88258524 513.2048753 112.6524353 512.38768005 C108.0098552 510.10967143 103.75453142 507.31818525 99.4649353 504.45018005 C97.73753382 503.31122075 96.00667279 502.17865184 94.26783752 501.05722046 C92.69587266 500.04118468 91.1362723 499.00609332 89.57748413 497.96995544 C86.49056313 496.30011695 84.1362837 495.66811652 80.6524353 495.38768005 C78.21381896 496.15630137 78.21381896 496.15630137 75.9024353 497.63768005 C74.96141968 498.18166443 74.02040405 498.7256488 73.0508728 499.28611755 C70.42874553 500.90761695 67.83840696 502.5594319 65.2539978 504.23924255 C64.47508179 504.73649841 63.69616577 505.23375427 62.89364624 505.74607849 C61.3455905 506.73829086 59.80906758 507.7487912 58.28622437 508.77928162 C53.74456966 511.6910115 50.2012485 512.9649707 44.79745483 513.05613708 C41.3724898 511.9888079 39.83597908 510.18520574 37.6524353 507.38768005 C37.08480835 504.06614685 37.08480835 504.06614685 37.16415405 500.3368988 C37.17122879 499.67809219 37.17830353 499.01928558 37.18559265 498.34051514 C37.21342551 496.25087971 37.27612711 494.16399529 37.3399353 492.07518005 C37.36503325 490.65269292 37.38784382 489.23016346 37.40829468 487.80760193 C37.46321084 484.33341144 37.54939845 480.86081455 37.6524353 477.38768005 C37.04015076 477.3965625 36.42786621 477.40544495 35.79702759 477.41459656 C29.37213564 477.50371339 22.94742183 477.56367885 16.52206421 477.60740662 C14.13038999 477.62740983 11.73876397 477.65462129 9.34725952 477.68943787 C5.89157144 477.73845472 2.43653498 477.76076267 -1.0194397 477.77830505 C-2.07306702 477.7989502 -3.12669434 477.81959534 -4.21224976 477.84086609 C-17.05666798 477.84467004 -27.47611546 473.46012357 -37.0350647 465.01268005 C-45.10373932 455.853644 -50.46363564 447.02529922 -50.48178577 434.58556271 C-50.484138 433.89876317 -50.48649023 433.21196364 -50.48891374 432.504352 C-50.49559594 430.19200295 -50.49514576 427.87971019 -50.49473572 425.56735229 C-50.49803483 423.89706988 -50.5017605 422.22678825 -50.5058772 420.55650765 C-50.51589998 415.95774162 -50.51961444 411.35898865 -50.52226651 406.76021326 C-50.52616875 401.80364767 -50.53574717 396.84709243 -50.54447937 391.89053345 C-50.56424635 379.91577516 -50.57431042 367.94101603 -50.58320716 355.9662455 C-50.5875898 350.32769646 -50.59295668 344.68914835 -50.59819603 339.05060005 C-50.61520877 320.30760487 -50.62970297 301.56461027 -50.63694477 282.82160854 C-50.63885468 277.95715776 -50.64077501 273.09270699 -50.64273071 268.22825623 C-50.64321445 267.01921405 -50.64369819 265.81017187 -50.64419659 264.56449205 C-50.65249698 244.97857316 -50.67783387 225.39271535 -50.71031139 205.80682313 C-50.74338046 185.7003315 -50.76139341 165.59387092 -50.76458901 145.48735195 C-50.76675428 134.19752755 -50.77550539 122.90779221 -50.80105019 111.61799431 C-50.82275509 102.00303561 -50.83080861 92.3881876 -50.8210834 82.77320718 C-50.81653809 77.86855974 -50.81843852 72.96414067 -50.83784485 68.05952454 C-50.85547264 63.5655346 -50.85448187 59.07193971 -50.83894756 54.5779456 C-50.83657091 52.95607187 -50.84089802 51.33417082 -50.85277621 49.71233886 C-50.95673222 34.57523323 -47.53912108 22.91981469 -37.0350647 11.63768005 C-33.25817552 8.05171055 -29.10920634 5.47536678 -24.3475647 3.38768005 C-23.79209351 3.13885683 -23.23662233 2.8900336 -22.66431868 2.63367027 C-15.26623399 -0.27062255 -7.81558135 -0.0341504 0 0 Z " fill="#35485D" transform="translate(94.34756469726563,-0.3876800537109375)"/>
<path d="M0 0 C1.47792423 -0.00131051 2.95584776 -0.00394143 4.43376762 -0.0077675 C8.46796577 -0.01443626 12.50192237 -0.00252997 16.53608978 0.01256669 C20.89653661 0.02557526 25.25697085 0.02113419 29.61743164 0.01885986 C37.16326792 0.01729017 44.70902612 0.02666756 52.25484276 0.04357338 C63.16468718 0.06800008 74.07449401 0.0757724 84.98436282 0.07953735 C102.68676558 0.08609608 120.38912676 0.10604154 138.09150696 0.13444519 C155.28323662 0.16200074 172.47495497 0.183227 189.66670227 0.19596863 C190.72718274 0.1967568 191.78766321 0.19754497 192.88027944 0.19835702 C198.20063176 0.20227226 203.52098416 0.20606335 208.84133661 0.20979273 C252.94827439 0.24087063 297.05516685 0.29369066 341.1620636 0.36076355 C338.75349557 2.20663119 336.38564635 3.83524076 333.7870636 5.42326355 C325.15819305 11.63161581 321.56627712 23.31179764 319.57221985 33.32170105 C317.38601845 49.52041233 319.93936081 66.66102057 329.1620636 80.36076355 C332.71467393 83.887639 336.60448767 86.29900301 341.1620636 88.36076355 C341.1620636 88.69076355 341.1620636 89.02076355 341.1620636 89.36076355 C269.5520636 89.36076355 197.9420636 89.36076355 124.1620636 89.36076355 C124.1620636 99.26076355 124.1620636 109.16076355 124.1620636 119.36076355 C118.42062396 125.10220319 118.42062396 125.10220319 115.17378235 125.1693573 C108.21614116 124.76449145 102.59257558 120.17944178 96.9745636 116.42326355 C95.24716212 115.28430424 93.51630109 114.15173533 91.77746582 113.03030396 C90.20550095 112.01426818 88.64590059 110.97917682 87.08711243 109.94303894 C84.00019143 108.27320045 81.64591199 107.64120001 78.1620636 107.36076355 C75.72344726 108.12938487 75.72344726 108.12938487 73.4120636 109.61076355 C72.47104797 110.15474792 71.53003235 110.6987323 70.5605011 111.25920105 C67.93837383 112.88070044 65.34803525 114.53251539 62.7636261 116.21232605 C61.98471008 116.70958191 61.20579407 117.20683777 60.40327454 117.71916199 C58.8552188 118.71137435 57.31869587 119.72187469 55.79585266 120.75236511 C51.25419796 123.664095 47.7108768 124.9380542 42.30708313 125.02922058 C38.8821181 123.96189139 37.34560738 122.15828923 35.1620636 119.36076355 C34.59443665 116.03923035 34.59443665 116.03923035 34.67378235 112.3099823 C34.68085709 111.65117569 34.68793182 110.99236908 34.69522095 110.31359863 C34.72305381 108.22396321 34.78575541 106.13707879 34.8495636 104.04826355 C34.87466155 102.62577641 34.89747212 101.20324696 34.91792297 99.78068542 C34.97283914 96.30649494 35.05902675 92.83389805 35.1620636 89.36076355 C34.54977905 89.369646 33.93749451 89.37852844 33.30665588 89.38768005 C26.88176394 89.47679688 20.45705013 89.53676235 14.0316925 89.58049011 C11.64001828 89.60049332 9.24839226 89.62770479 6.85688782 89.66252136 C3.40119974 89.71153821 -0.05383673 89.73384616 -3.5098114 89.75138855 C-4.56343872 89.77203369 -5.61706604 89.79267883 -6.70262146 89.81394958 C-19.54703968 89.81775354 -29.96648716 85.43320707 -39.5254364 76.98576355 C-49.77091886 65.35575644 -53.72286223 54.84768437 -53.01713562 39.39543152 C-52.03991912 28.29989706 -45.74699533 18.49465477 -37.8066864 10.9896698 C-26.38308728 1.53800148 -14.44990435 -0.0960834 0 0 Z " fill="#F8E9AF" transform="translate(96.83793640136719,387.6392364501953)"/>
<path d="M0 0 C4.86760427 2.42308054 7.86054371 6.44432804 9.8359375 11.3828125 C10.90958839 16.77932094 10.02926255 21.45921127 7.35546875 26.23046875 C4.72576855 29.95531402 1.60629376 33.20925981 -1.515625 36.5234375 C-4.04157068 39.2505647 -6.39607312 42.05059938 -8.7265625 44.9453125 C-11.61255043 48.52109719 -14.56851054 51.98682568 -17.6640625 55.3828125 C-21.65387 59.76323052 -25.42846592 64.28493886 -29.140625 68.90234375 C-30.80244022 70.93951106 -32.51902659 72.87914052 -34.2890625 74.8203125 C-36.37490331 77.10277965 -36.37490331 77.10277965 -36.0625 79.2265625 C-34.81020078 82.23208063 -32.90902882 84.0929481 -30.6640625 86.4453125 C-27.16187527 90.17397492 -23.81305506 93.95785084 -20.6015625 97.9453125 C-17.71557457 101.52109719 -14.75961446 104.98682568 -11.6640625 108.3828125 C-6.95880248 113.55531959 -2.53336468 118.92515687 1.8359375 124.3828125 C2.52429688 125.23746094 3.21265625 126.09210938 3.921875 126.97265625 C8.37043735 132.57421334 10.4451357 135.95059449 9.8359375 143.3828125 C7.56358202 150.22584872 3.73114184 154.28539478 -2.6015625 157.6953125 C-6.69058461 158.79236721 -10.16230131 159.26721981 -14.14453125 157.5078125 C-22.33818119 152.68988294 -27.9597916 145.51710161 -33.84375 138.20703125 C-36.04734656 135.52487584 -38.32450075 132.94654829 -40.6640625 130.3828125 C-44.58297502 126.08289459 -48.25577119 121.62361703 -51.9140625 117.1015625 C-54.09907819 114.46133521 -56.35577641 111.9155153 -58.6640625 109.3828125 C-63.36692895 104.20391419 -67.83580023 98.87824661 -72.1640625 93.3828125 C-72.79054687 92.63257813 -73.41703125 91.88234375 -74.0625 91.109375 C-78.05402086 85.91852393 -78.81788812 81.78410187 -78.765625 75.27734375 C-77.48455275 69.11322338 -72.7102204 64.5115324 -68.6640625 59.8828125 C-67.59105696 58.6433061 -66.51814285 57.40372054 -65.4453125 56.1640625 C-64.90003906 55.53628906 -64.35476562 54.90851563 -63.79296875 54.26171875 C-61.23687115 51.3133184 -58.70105401 48.34764975 -56.1640625 45.3828125 C-55.16416986 44.21605382 -54.1641696 43.04938736 -53.1640625 41.8828125 C-52.4215625 41.0165625 -52.4215625 41.0165625 -51.6640625 40.1328125 C-50.1640625 38.3828125 -48.6640625 36.6328125 -47.1640625 34.8828125 C-46.66874023 34.30490967 -46.17341797 33.72700684 -45.66308594 33.1315918 C-44.66644844 31.96890216 -43.66970423 30.80630399 -42.67285156 29.64379883 C-40.1205073 26.66703761 -37.57022929 23.68854493 -35.0234375 20.70703125 C-32.52474289 17.78252914 -30.01976208 14.86353721 -27.50976562 11.94873047 C-26.25990794 10.49434237 -25.01640369 9.03450092 -23.7734375 7.57421875 C-23.07734375 6.76855469 -22.38125 5.96289062 -21.6640625 5.1328125 C-21.07625 4.44703125 -20.4884375 3.76125 -19.8828125 3.0546875 C-14.65129454 -2.03415269 -6.75015586 -1.9251347 0 0 Z " fill="#EAEEEF" transform="translate(211.1640625,115.6171875)"/>
<path d="M0 0 C3.38301109 2.07807154 5.63441372 4.3494591 8.26953125 7.31640625 C8.74245605 7.84540527 9.21538086 8.3744043 9.70263672 8.91943359 C13.52453476 13.22917888 17.16513634 17.68163286 20.77734375 22.16796875 C22.93460524 24.78915744 25.17014125 27.30794906 27.45703125 29.81640625 C31.37594377 34.11632416 35.04873994 38.57560172 38.70703125 43.09765625 C40.89204694 45.73788354 43.14874516 48.28370345 45.45703125 50.81640625 C62.74637872 69.83468846 62.74637872 69.83468846 62.42578125 80.76171875 C61.19487968 88.783094 54.61299439 94.4793004 49.3125 100.21484375 C46.92965846 102.84663888 44.68647709 105.55391665 42.45703125 108.31640625 C38.84670683 112.77916838 35.07275196 117.04360158 31.20703125 121.28515625 C28.87841072 123.90485435 26.66140178 126.59155935 24.45703125 129.31640625 C20.80208172 133.83096934 17.00467056 138.17418429 13.0859375 142.4609375 C11.09422742 144.66460939 9.1811749 146.91844094 7.26953125 149.19140625 C2.91382066 154.1939045 -1.4922632 157.47499225 -8.29296875 158.12890625 C-14.14887865 157.64091376 -18.05804249 155.18859529 -21.85546875 150.87890625 C-25.50445279 145.7703286 -26.59774887 142.14089963 -26.04296875 135.81640625 C-23.97501292 130.87933288 -21.11403439 127.26297815 -17.60546875 123.31640625 C-16.52327208 122.07696733 -15.44124557 120.83737982 -14.359375 119.59765625 C-13.53203857 118.65599609 -13.53203857 118.65599609 -12.68798828 117.6953125 C-10.115118 114.7566349 -7.58018933 111.78585061 -5.04296875 108.81640625 C-4.04966699 107.65739109 -3.05617659 106.49853757 -2.0625 105.33984375 C0.00373352 102.92935026 2.06866447 100.51774826 4.1328125 98.10546875 C4.65464111 97.49622559 5.17646973 96.88698242 5.71411133 96.25927734 C6.73765457 95.06302825 7.75967073 93.86547057 8.7800293 92.66650391 C12.05764448 88.82423679 15.42681021 85.08996732 18.9453125 81.46484375 C20.17485554 79.85946612 20.17485554 79.85946612 19.6640625 77.8984375 C18.50772379 74.49330748 16.00183048 72.08346019 13.64453125 69.44140625 C12.54408646 68.18375506 11.44383124 66.92593796 10.34375 65.66796875 C9.77962402 65.02762695 9.21549805 64.38728516 8.63427734 63.72753906 C6.04787937 60.78047599 3.50328665 57.79813877 0.95703125 54.81640625 C-2.0942243 51.25142912 -5.14987392 47.69045136 -8.21875 44.140625 C-26.66243436 22.78253083 -26.66243436 22.78253083 -26.421875 13.16015625 C-25.54400849 7.73005411 -22.31432011 4.05674904 -18.48046875 0.31640625 C-12.52667965 -2.28161081 -6.06614793 -2.35949015 0 0 Z " fill="#EAEEEF" transform="translate(370.04296875,116.18359375)"/>
<path d="M0 0 C3.43219394 1.90453115 5.58914599 3.98810922 7.75 7.3125 C8.1625 7.910625 8.575 8.50875 9 9.125 C11.68149922 16.94603939 8.73805613 26.43914253 7.39501953 34.30639648 C7.14155691 35.81995547 6.88866282 37.33360975 6.6362915 38.84735107 C5.95202898 42.94134026 5.25967854 47.03392371 4.56570673 51.12627673 C3.83885939 55.42011793 3.11907873 59.71514385 2.39840698 64.01002502 C1.18714425 71.22235239 -0.02903955 78.43383574 -1.24853516 85.64477539 C-2.6557093 93.96562277 -4.05676732 102.28748055 -5.45416343 110.60997528 C-6.94538002 119.49120997 -8.44024199 128.37182781 -9.93661737 137.25219464 C-10.36597934 139.8014206 -10.79475974 142.35074386 -11.22344589 144.90008354 C-11.89910371 148.91666607 -12.57727748 152.93281636 -13.25734711 156.94865417 C-13.50564952 158.41700889 -13.75317176 159.8854958 -13.99982834 161.35412788 C-17.85087548 184.27331712 -17.85087548 184.27331712 -23.25 189.3125 C-28.72268565 192.53172685 -34.03271017 193.23738609 -40.25 192.3125 C-45.47258358 189.70120821 -48.68485429 186.12976229 -51.5 181.0625 C-52.89240645 175.95700967 -52.74460659 171.17168693 -51.38705444 166.0687561 C-49.76309057 159.67391593 -48.83507248 153.14713137 -47.79150391 146.63818359 C-47.55172872 145.15901901 -47.31161224 143.67990973 -47.07118225 142.20085144 C-46.55608951 139.02932375 -46.04284899 135.85750386 -45.53090286 132.68546677 C-44.72032793 127.6667224 -43.90217458 122.64923197 -43.08236694 117.63198853 C-42.80120567 115.91073495 -42.52004916 114.1894806 -42.23889732 112.46822548 C-42.0981619 111.60665817 -41.95742647 110.74509085 -41.81242633 109.85741544 C-39.90657028 98.18640617 -38.00685082 86.51443381 -36.12304688 74.83984375 C-34.84988179 66.94997708 -33.56630023 59.06188165 -32.27083719 51.17564452 C-31.5865588 47.0073054 -30.90770123 42.83824238 -30.24168777 38.6669426 C-29.61564657 34.74630489 -28.97597737 30.82813538 -28.32588005 26.91141701 C-28.09019077 25.47636722 -27.85950809 24.04048452 -27.6342907 22.60375404 C-27.3253667 20.63789321 -26.99645703 18.67520446 -26.66665649 16.71273804 C-26.48858271 15.61513342 -26.31050892 14.5175288 -26.12703896 13.38666344 C-24.30485602 6.99961742 -20.39746902 3.14572161 -15.25 -0.6875 C-9.81939165 -2.49770278 -5.15256228 -2.38847747 0 0 Z " fill="#945AA4" transform="translate(299.25,98.6875)"/>
<path d="M0 0 C29.37 0 58.74 0 89 0 C89.103125 10.786875 89.20625 21.57375 89.3125 32.6875 C89.35802002 36.08764404 89.40354004 39.48778809 89.45043945 42.9909668 C89.46504222 45.68537407 89.47778338 48.37979236 89.48828125 51.07421875 C89.50134811 51.77102249 89.51441498 52.46782623 89.52787781 53.18574524 C89.5646198 55.24901907 89.56952622 57.31022612 89.56762695 59.3737793 C89.57873001 60.53515915 89.58983307 61.696539 89.60127258 62.89311218 C88.81817291 66.93953458 87.13261197 68.41825364 84 71 C80.86085624 72.20836851 78.23014994 71.81719525 75 71 C70.3574199 68.72199137 66.10209612 65.9305052 61.8125 63.0625 C60.08509852 61.92354069 58.35423749 60.79097178 56.61540222 59.66954041 C55.04343735 58.65350463 53.48383699 57.61841327 51.92504883 56.58227539 C48.83812783 54.9124369 46.48384839 54.28043646 43 54 C40.56138366 54.76862132 40.56138366 54.76862132 38.25 56.25 C37.30898437 56.79398437 36.36796875 57.33796875 35.3984375 57.8984375 C32.77631023 59.51993689 30.18597165 61.17175184 27.6015625 62.8515625 C26.82264648 63.34881836 26.04373047 63.84607422 25.24121094 64.35839844 C23.6931552 65.3506108 22.15663227 66.36111115 20.63378906 67.39160156 C16.09213436 70.30333145 12.5488132 71.57729065 7.14501953 71.66845703 C3.78410055 70.62108665 2.23348132 68.67149508 0 66 C-0.60127258 62.89311218 -0.60127258 62.89311218 -0.56762695 59.3737793 C-0.56822963 58.71897237 -0.5688323 58.06416544 -0.56945324 57.38951588 C-0.56574031 55.2835328 -0.52776636 53.1798023 -0.48828125 51.07421875 C-0.48072815 49.13560974 -0.48072815 49.13560974 -0.47302246 47.15783691 C-0.44687981 42.33416534 -0.3770729 37.51081019 -0.3125 32.6875 C-0.209375 21.900625 -0.10625 11.11375 0 0 Z " fill="#965CA4" transform="translate(132,441)"/>
<path d="M0 0 C0.33 0 0.66 0 1 0 C1.09270652 12.28277243 1.16376857 24.56546152 1.20724869 36.84851265 C1.22811767 42.552129 1.25642323 48.25550586 1.30175781 53.95898438 C1.34523939 59.46382881 1.36914229 64.96844297 1.37950897 70.47344589 C1.38689613 72.57300313 1.40132153 74.67254785 1.42292023 76.77200699 C1.45198449 79.71432924 1.45595468 82.65570168 1.45410156 85.59814453 C1.47567322 86.89826729 1.47567322 86.89826729 1.49768066 88.22465515 C1.46085641 93.63306502 0.6227965 96.72637947 -3 101 C-10.21736449 106.37764413 -19.33533407 106.20851584 -28 105 C-35.56981793 102.68813669 -40.45502962 97.32862484 -44.37109375 90.66796875 C-52.33196162 74.91159227 -53.00798018 56.39770668 -48.203125 39.64453125 C-46.66688558 34.99092287 -44.80697834 31.00874276 -42 27 C-41.41412109 26.14341797 -41.41412109 26.14341797 -40.81640625 25.26953125 C-37.57834628 20.96981227 -33.31601307 17.56038111 -27.93554688 16.65112305 C-25.76375973 16.5287232 -23.61264652 16.48839922 -21.4375 16.5 C-15.40087558 16.53202453 -11.83928667 16.06014007 -7 12 C-5.36201728 10.07269879 -5.36201728 10.07269879 -4.25 8 C-3.86328125 7.34 -3.4765625 6.68 -3.078125 6 C-2.01022785 4.01897341 -0.99196906 2.02000973 0 0 Z " fill="#2D3E50" transform="translate(466,372)"/>
<path d="M0 0 C1.54927042 -0.00813319 3.09852924 -0.01881797 4.64776611 -0.03186035 C8.8504407 -0.05920046 13.05223103 -0.04861452 17.25492096 -0.02958584 C21.65418368 -0.01438863 26.053371 -0.02848492 30.45263672 -0.03790283 C37.84030748 -0.04881693 45.22761828 -0.03443802 52.61523438 -0.00585938 C61.15483636 0.0267943 69.69357886 0.01621715 78.23316002 -0.01681781 C85.56668642 -0.04405107 92.89995416 -0.04788541 100.23351479 -0.03218579 C104.61283073 -0.02283436 108.99174276 -0.02157644 113.37103271 -0.04140472 C117.48853509 -0.05874566 121.60493013 -0.04670171 125.72231293 -0.01203918 C127.23277701 -0.00410971 128.7433344 -0.00637769 130.25376129 -0.01961517 C141.58088871 -0.10972982 141.58088871 -0.10972982 145.0368042 2.03633881 C147.53685808 4.81749253 148.00614292 6.67953151 148.0703125 10.40136719 C146.89719549 14.12773887 146.05509204 15.40203046 143.0078125 17.77636719 C140.05924988 18.27973175 140.05924988 18.27973175 136.55541992 18.28430176 C135.90962321 18.29054172 135.2638265 18.29678168 134.5984602 18.30321074 C132.43636153 18.31915486 130.2753881 18.30653237 128.11328125 18.29394531 C126.56254417 18.29936586 125.01181225 18.30648814 123.46109009 18.31518555 C119.25032058 18.3334301 115.03994282 18.32634685 110.82916641 18.3136692 C106.4241047 18.30354734 102.01907669 18.31293262 97.61401367 18.31921387 C90.21624728 18.32649266 82.81864059 18.31689654 75.42089844 18.29785156 C66.86612367 18.27608232 58.31173021 18.28313353 49.75696468 18.30515718 C42.41417392 18.32330463 35.071498 18.32587274 27.72869205 18.31540251 C23.34220694 18.30916395 18.95590111 18.30834183 14.56942749 18.32154846 C10.44560253 18.33309688 6.32226954 18.32510009 2.19849777 18.30197144 C0.68437899 18.29667889 -0.82978114 18.2982075 -2.34388351 18.30702209 C-4.40974762 18.31794073 -6.47403174 18.30426204 -8.53979492 18.28430176 C-9.69605881 18.28279366 -10.85232269 18.28128555 -12.04362488 18.27973175 C-15.64846967 17.66432982 -16.79762078 16.6518949 -18.9921875 13.77636719 C-20.33071673 9.52456845 -20.40697711 7.61766043 -18.42529297 3.59832764 C-13.93194429 -1.40024199 -6.18968428 -0.0542468 0 0 Z " fill="#F9C176" transform="translate(116.9921875,423.2236328125)"/>
</svg>
